<svg width="127" height="122" viewBox="0 0 127 122" fill="none" xmlns="http://www.w3.org/2000/svg">
<path d="M41.2822 57H22.4102V55.0957C23.2891 55.0306 24.3226 54.876 25.5107 54.6318C26.6989 54.3714 27.293 54.054 27.293 53.6797C27.293 53.5495 27.2767 53.403 27.2441 53.2402C27.2279 53.0775 27.1628 52.8577 27.0488 52.5811L24.0947 45.4033H12.1318C11.8551 46.0706 11.5459 46.8519 11.2041 47.7471C10.8786 48.6423 10.5938 49.4398 10.3496 50.1396C10.0404 51.0511 9.85319 51.7103 9.78809 52.1172C9.73926 52.5241 9.71484 52.8089 9.71484 52.9717C9.71484 53.4925 10.1055 53.9401 10.8867 54.3145C11.6842 54.6725 13.0026 54.9329 14.8418 55.0957V57H0.632812V55.0957C1.16992 55.0632 1.77214 54.9818 2.43945 54.8516C3.12305 54.7051 3.66016 54.5098 4.05078 54.2656C4.7181 53.875 5.27962 53.3949 5.73535 52.8252C6.20736 52.2555 6.59798 51.5801 6.90723 50.7988C8.79525 46.2253 10.6833 41.6436 12.5713 37.0537C14.4756 32.4639 16.5752 27.402 18.8701 21.8682H23.7529C26.943 29.7132 29.4414 35.9144 31.248 40.4717C33.0547 45.029 34.5928 48.805 35.8623 51.7998C36.0739 52.2881 36.3424 52.7357 36.668 53.1426C36.9935 53.5332 37.4574 53.9076 38.0596 54.2656C38.5153 54.526 39.0443 54.7214 39.6465 54.8516C40.2487 54.9818 40.7939 55.0632 41.2822 55.0957V57ZM23.0938 42.9863L18.0645 30.4375L13.1084 42.9863H23.0938Z" fill="#01996D"/>
</svg>
